<svg width="320" height="76" viewBox="0 0 320 76" fill="none" xmlns="http://www.w3.org/2000/svg">
<path d="M10 1H319V75H1V10C1 5.02944 5.02944 1 10 1Z" stroke="white" stroke-width="2"/>
<path d="M233 1H319V75H233V1Z" stroke="white" stroke-width="2"/>
<path d="M74.464 45.24C73.152 45.24 71.896 45.056 70.696 44.688C69.496 44.304 68.544 43.816 67.84 43.224L68.92 40.8C69.592 41.328 70.424 41.768 71.416 42.12C72.408 42.472 73.424 42.648 74.464 42.648C75.344 42.648 76.056 42.552 76.6 42.36C77.144 42.168 77.544 41.912 77.8 41.592C78.056 41.256 78.184 40.88 78.184 40.464C78.184 39.952 78 39.544 77.632 39.24C77.264 38.92 76.784 38.672 76.192 38.496C75.616 38.304 74.968 38.128 74.248 37.968C73.544 37.808 72.832 37.624 72.112 37.416C71.408 37.192 70.76 36.912 70.168 36.576C69.592 36.224 69.12 35.76 68.752 35.184C68.384 34.608 68.2 33.872 68.2 32.976C68.2 32.064 68.44 31.232 68.92 30.48C69.416 29.712 70.16 29.104 71.152 28.656C72.16 28.192 73.432 27.96 74.968 27.96C75.976 27.96 76.976 28.088 77.968 28.344C78.96 28.6 79.824 28.968 80.56 29.448L79.576 31.872C78.824 31.424 78.048 31.096 77.248 30.888C76.448 30.664 75.68 30.552 74.944 30.552C74.08 30.552 73.376 30.656 72.832 30.864C72.304 31.072 71.912 31.344 71.656 31.68C71.416 32.016 71.296 32.4 71.296 32.832C71.296 33.344 71.472 33.76 71.824 34.08C72.192 34.384 72.664 34.624 73.24 34.8C73.832 34.976 74.488 35.152 75.208 35.328C75.928 35.488 76.64 35.672 77.344 35.88C78.064 36.088 78.712 36.36 79.288 36.696C79.88 37.032 80.352 37.488 80.704 38.064C81.072 38.64 81.256 39.368 81.256 40.248C81.256 41.144 81.008 41.976 80.512 42.744C80.032 43.496 79.288 44.104 78.28 44.568C77.272 45.016 76 45.24 74.464 45.24ZM90.0858 45.168C88.6618 45.168 87.4138 44.888 86.3418 44.328C85.2858 43.752 84.4618 42.968 83.8698 41.976C83.2938 40.984 83.0058 39.856 83.0058 38.592C83.0058 37.312 83.2858 36.184 83.8458 35.208C84.4218 34.216 85.2058 33.44 86.1978 32.88C87.2058 32.32 88.3498 32.04 89.6298 32.04C90.8778 32.04 91.9898 32.312 92.9658 32.856C93.9418 33.4 94.7098 34.168 95.2698 35.16C95.8298 36.152 96.1098 37.32 96.1098 38.664C96.1098 38.792 96.1018 38.936 96.0858 39.096C96.0858 39.256 96.0778 39.408 96.0618 39.552H85.3818V37.56H94.4778L93.3018 38.184C93.3178 37.448 93.1658 36.8 92.8458 36.24C92.5258 35.68 92.0858 35.24 91.5258 34.92C90.9818 34.6 90.3498 34.44 89.6298 34.44C88.8938 34.44 88.2458 34.6 87.6858 34.92C87.1418 35.24 86.7098 35.688 86.3898 36.264C86.0858 36.824 85.9338 37.488 85.9338 38.256V38.736C85.9338 39.504 86.1098 40.184 86.4618 40.776C86.8138 41.368 87.3098 41.824 87.9498 42.144C88.5898 42.464 89.3258 42.624 90.1578 42.624C90.8778 42.624 91.5258 42.512 92.1018 42.288C92.6778 42.064 93.1898 41.712 93.6378 41.232L95.2458 43.08C94.6698 43.752 93.9418 44.272 93.0618 44.64C92.1978 44.992 91.2058 45.168 90.0858 45.168ZM105.015 45.168C103.591 45.168 102.343 44.888 101.271 44.328C100.215 43.752 99.3914 42.968 98.7994 41.976C98.2234 40.984 97.9354 39.856 97.9354 38.592C97.9354 37.312 98.2154 36.184 98.7754 35.208C99.3514 34.216 100.135 33.44 101.127 32.88C102.135 32.32 103.279 32.04 104.559 32.04C105.807 32.04 106.919 32.312 107.895 32.856C108.871 33.4 109.639 34.168 110.199 35.16C110.759 36.152 111.039 37.32 111.039 38.664C111.039 38.792 111.031 38.936 111.015 39.096C111.015 39.256 111.007 39.408 110.991 39.552H100.311V37.56H109.407L108.231 38.184C108.247 37.448 108.095 36.8 107.775 36.24C107.455 35.68 107.015 35.24 106.455 34.92C105.911 34.6 105.279 34.44 104.559 34.44C103.823 34.44 103.175 34.6 102.615 34.92C102.071 35.24 101.639 35.688 101.319 36.264C101.015 36.824 100.863 37.488 100.863 38.256V38.736C100.863 39.504 101.039 40.184 101.391 40.776C101.743 41.368 102.239 41.824 102.879 42.144C103.519 42.464 104.255 42.624 105.087 42.624C105.807 42.624 106.455 42.512 107.031 42.288C107.607 42.064 108.119 41.712 108.567 41.232L110.175 43.08C109.599 43.752 108.871 44.272 107.991 44.64C107.127 44.992 106.135 45.168 105.015 45.168ZM120.842 45V28.2H123.41L130.754 40.464H129.41L136.634 28.2H139.202L139.226 45H136.274L136.25 32.832H136.874L130.73 43.08H129.338L123.098 32.832H123.818V45H120.842ZM149.236 45.168C147.924 45.168 146.756 44.888 145.732 44.328C144.708 43.752 143.9 42.968 143.308 41.976C142.716 40.984 142.42 39.856 142.42 38.592C142.42 37.312 142.716 36.184 143.308 35.208C143.9 34.216 144.708 33.44 145.732 32.88C146.756 32.32 147.924 32.04 149.236 32.04C150.564 32.04 151.74 32.32 152.764 32.88C153.804 33.44 154.612 34.208 155.188 35.184C155.78 36.16 156.076 37.296 156.076 38.592C156.076 39.856 155.78 40.984 155.188 41.976C154.612 42.968 153.804 43.752 152.764 44.328C151.74 44.888 150.564 45.168 149.236 45.168ZM149.236 42.6C149.972 42.6 150.628 42.44 151.204 42.12C151.78 41.8 152.228 41.336 152.548 40.728C152.884 40.12 153.052 39.408 153.052 38.592C153.052 37.76 152.884 37.048 152.548 36.456C152.228 35.848 151.78 35.384 151.204 35.064C150.628 34.744 149.98 34.584 149.26 34.584C148.524 34.584 147.868 34.744 147.292 35.064C146.732 35.384 146.284 35.848 145.948 36.456C145.612 37.048 145.444 37.76 145.444 38.592C145.444 39.408 145.612 40.12 145.948 40.728C146.284 41.336 146.732 41.8 147.292 42.12C147.868 42.44 148.516 42.6 149.236 42.6ZM158.945 45V32.184H161.801V35.712L161.465 34.68C161.849 33.816 162.449 33.16 163.265 32.712C164.097 32.264 165.129 32.04 166.361 32.04V34.896C166.233 34.864 166.113 34.848 166.001 34.848C165.889 34.832 165.777 34.824 165.665 34.824C164.529 34.824 163.625 35.16 162.953 35.832C162.281 36.488 161.945 37.472 161.945 38.784V45H158.945ZM174.812 45.168C173.388 45.168 172.14 44.888 171.068 44.328C170.012 43.752 169.188 42.968 168.596 41.976C168.02 40.984 167.732 39.856 167.732 38.592C167.732 37.312 168.012 36.184 168.572 35.208C169.148 34.216 169.932 33.44 170.924 32.88C171.932 32.32 173.076 32.04 174.356 32.04C175.604 32.04 176.716 32.312 177.692 32.856C178.668 33.4 179.436 34.168 179.996 35.16C180.556 36.152 180.836 37.32 180.836 38.664C180.836 38.792 180.828 38.936 180.812 39.096C180.812 39.256 180.804 39.408 180.788 39.552H170.108V37.56H179.204L178.028 38.184C178.044 37.448 177.892 36.8 177.572 36.24C177.252 35.68 176.812 35.24 176.252 34.92C175.708 34.6 175.076 34.44 174.356 34.44C173.62 34.44 172.972 34.6 172.412 34.92C171.868 35.24 171.436 35.688 171.116 36.264C170.812 36.824 170.66 37.488 170.66 38.256V38.736C170.66 39.504 170.836 40.184 171.188 40.776C171.54 41.368 172.036 41.824 172.676 42.144C173.316 42.464 174.052 42.624 174.884 42.624C175.604 42.624 176.252 42.512 176.828 42.288C177.404 42.064 177.916 41.712 178.364 41.232L179.972 43.08C179.396 43.752 178.668 44.272 177.788 44.64C176.924 44.992 175.932 45.168 174.812 45.168ZM184.678 45.168C184.134 45.168 183.67 44.984 183.286 44.616C182.902 44.232 182.71 43.752 182.71 43.176C182.71 42.568 182.902 42.088 183.286 41.736C183.67 41.368 184.134 41.184 184.678 41.184C185.222 41.184 185.686 41.368 186.07 41.736C186.454 42.088 186.646 42.568 186.646 43.176C186.646 43.752 186.454 44.232 186.07 44.616C185.686 44.984 185.222 45.168 184.678 45.168Z" fill="white"/>
<path d="M271.448 46.9792C271.187 46.7188 271.057 46.4104 271.057 46.0542C271.057 45.6979 271.187 45.39 271.448 45.1302L279.078 37.5L271.422 29.8438C271.179 29.6007 271.057 29.2969 271.057 28.9323C271.057 28.5677 271.187 28.2552 271.448 27.9948C271.708 27.7344 272.017 27.6042 272.373 27.6042C272.729 27.6042 273.037 27.7344 273.297 27.9948L282.047 36.7709C282.151 36.875 282.225 36.9879 282.269 37.1094C282.312 37.2309 282.334 37.3611 282.333 37.5C282.333 37.6389 282.311 37.7691 282.268 37.8906C282.224 38.0122 282.15 38.125 282.047 38.2292L273.271 47.0052C273.028 47.2483 272.728 47.3698 272.372 47.3698C272.016 47.3698 271.708 47.2396 271.448 46.9792Z" fill="white"/>
</svg>
